# xmcd
# 
# Track frame offsets:
#     150
#     16328
#     35717
#     59570
#     77569
#     100838
#     122336
#     140029
#     160998
#     180438
# 
# Disc length: 2673
# 
# Revision: 0
# Processed by: cddbd v1.5.2PL0 Copyright (c) Steve Scherf et al.
# Submitted via: fre:ac v1.0.27
# 
DISCID=7e0a6f0a
DTITLE=THE_UPTOWN_HORNS - Revue
DYEAR=1994
DGENRE=Jazz
TTITLE0=Sugar Melts When It's Wet
TTITLE1=Never Goin Down That Road Again
TTITLE2=Imaginary People
TTITLE3=Tell Me What You Want
TTITLE4=Trust Me
TTITLE5=You Don't Realize
TTITLE6=Marylou's
TTITLE7=I'm Dealin'
TTITLE8=Open the Door to Your Heart
TTITLE9=Odds Are Good That The Goods Are Odd
EXTD=YEAR: 1994
EXTT0=
EXTT1=
EXTT2=
EXTT3=
EXTT4=
EXTT5=
EXTT6=
EXTT7=
EXTT8=
EXTT9=
PLAYORDER=
